<?xml version="1.0" encoding="UTF-8" standalone="no"?>
<!-- Created with Inkscape (http://www.inkscape.org/) -->

<svg
   xmlns:dc="http://purl.org/dc/elements/1.1/"
   xmlns:cc="http://creativecommons.org/ns#"
   xmlns:rdf="http://www.w3.org/1999/02/22-rdf-syntax-ns#"
   xmlns:svg="http://www.w3.org/2000/svg"
   xmlns="http://www.w3.org/2000/svg"
   xmlns:sodipodi="http://sodipodi.sourceforge.net/DTD/sodipodi-0.dtd"
   xmlns:inkscape="http://www.inkscape.org/namespaces/inkscape"
   id="svg3303"
   version="1.1"
   inkscape:version="0.48.2 r9819"
   width="830.43756"
   height="391.22733"
   sodipodi:docname="aalto_helsinki_logo_right.svg">
  <metadata
     id="metadata3309">
    <rdf:RDF>
      <cc:Work
         rdf:about="">
        <dc:format>image/svg+xml</dc:format>
        <dc:type
           rdf:resource="http://purl.org/dc/dcmitype/StillImage" />
        <dc:title></dc:title>
      </cc:Work>
    </rdf:RDF>
  </metadata>
  <defs
     id="defs3307" />
  <sodipodi:namedview
     pagecolor="#ffffff"
     bordercolor="#666666"
     borderopacity="1"
     objecttolerance="10"
     gridtolerance="10"
     guidetolerance="10"
     inkscape:pageopacity="0"
     inkscape:pageshadow="2"
     inkscape:window-width="1440"
     inkscape:window-height="837"
     id="namedview3305"
     showgrid="false"
     inkscape:snap-global="false"
     inkscape:zoom="1.3775488"
     inkscape:cx="287.5943"
     inkscape:cy="167.82234"
     inkscape:window-x="73"
     inkscape:window-y="42"
     inkscape:window-maximized="0"
     inkscape:current-layer="svg3303"
     fit-margin-top="0"
     fit-margin-left="0"
     fit-margin-right="0"
     fit-margin-bottom="0"
     showborder="true" />
  <path
     style="fill:#000000"
     d="m 2.84375,0.00858871 c -0.95098,0.02 -1.90442,0.0972 -2.84375,0.1875 L 0,19.352339 c 3.53918,0.50584 7.26339,2.66748 12.96875,7.15625 l 6.25,4.9375 0.0937,6.65625 c 0.0388,3.66515 0.23685,8.68125 0.46875,11.15625 2.26623,24.18717 2.24579,47.39119 -0.15625,122.000001 -0.47801,14.84731 -1.21384,73.15552 -1.59375,126.5 -0.0783,11 -0.48641,26.075 -0.90625,33.5 -1.06939,16.68375 0.88429,26.23807 -7.65625,36.53125 -2.65796,3.31147 -5.60177,3.90182 -9.46875,0.40625 l 0,8.75 c 2.17684,1.49297 4.18237,2.30955 5.875,2.3125 2.07439,0.004 5.86388,-3.08944 9.71875,-7.9375 1.64376,-2.06726 3.781,-11.88389 3.8125,-17.5625 0.0184,-3.31142 1.96744,-40.66089 2.375,-45.5 0.20848,-2.475 0.353,-18 0.3125,-34.5 -0.0954,-38.86434 0.0361,-49.57223 0.78125,-63.25 l 0.59375,-11.25 c 2.65482,0.0791 8.21875,0.90625 8.21875,0.90625 l -2.7187,152.71875 c 0,0 26.63027,-45.42408 37.375,-66.34375 l 0.1875,-42.0625 c 0.10752,-23.13083 0.45098,-42.29484 0.75,-42.59375 0.29902,-0.29896 2.46702,-0.27959 3.65625,0.0312 2.03166,0.5313 1.17597,1.06572 0.84375,8.71875 -0.19447,4.4797 -0.63507,20.95 -1,36.625 -0.36493,15.675 0.9375,34.84375 0.9375,34.84375 0,0 28.33161,-53.48069 36,-69.09375 0.93363,-2.3336 2.87603,-6.62864 4.3125,-9.5625 2.4359,-4.97509 2.30651,-6.5762 5.03125,-6.03125 6.96378,0.33526 11.6875,0.6875 11.6875,0.6875 0,0 9.01108,13.83325 15.5,27.125 6.08759,12.46964 7.15385,14.00225 9.96875,14.03125 1.17404,0.0121 1.52425,-1.35804 1.53125,-6.25 0.6641,-11.83804 -0.30169,-25.21067 0.0312,-32.6875 1.64088,0.1236 2.2485,0.0996 3.71875,-0.15625 -0.41046,22.65306 -0.3125,49.4375 -0.3125,49.4375 0,0 10.57449,20.05444 12.3125,24.78125 1.89043,2.95299 4.21283,6.6413 5.15625,8.1875 1.19139,1.95258 2.35615,2.71619 3.875,2.5 2.6936,-0.38341 2.45992,3.01211 3.3125,-47.34375 0.65482,-38.6753 -0.78084,-39.57754 1.09375,-39.71875 1.80224,-0.13575 2.38952,-1.48219 4,-0.0937 -0.86439,7.10829 -2.19505,74.74389 -1.34375,87.125 0.66946,9.73665 0.75598,10.61427 5,12.09375 15.37305,2.0017 20.6601,-4.5493 31.03125,-11.59375 l 0.0938,-29.53125 c 0.11032,-37.40806 -0.18255,-58.45121 2.03125,-59.1875 0.3975,-0.1322 3.43135,-3.30472 3.53125,-0.0937 -0.70698,20.50094 -1.23503,41.18221 -0.5625,61.90625 0.733,21.50296 0.40625,23.9375 0.40625,23.9375 16.79635,-17.53408 21.66905,-23.15937 32.90625,-38.875 -1.382,-18.38577 -0.4976,-24.39404 -1.9375,-45.78125 0.044,-0.0699 0.076,-0.13534 0.094,-0.1875 0.3867,0.10545 1.2105,0.15379 3,0.0625 1.2608,14.05257 2.305,26.49207 3.0312,43.375 l 34.4375,-43.09375 c 0,0 6.5101,0.1875 10.75,0.1875 l 13.2813,13.5 c 12.1576,12.36337 16.5147,15.59077 16.5624,12.25 0.082,-5.68138 0.4867,-25.10868 0.7813,-25.4375 0.6871,-0.76696 2.9212,-1.75371 3.2187,1.03125 0.2982,2.78496 -0.5,9.11287 -0.5,16.34375 l 0,16.53125 7.5,5.875 c 9.7917,7.69432 12.7519,9.06409 15.6563,7.1875 1.7158,-6.62553 2.5,-49.34375 2.5,-49.34375 l 2.5625,1.34375 c 0,0 -0.4818,52.75825 1.25,52.71875 6.3046,-0.14382 22.9375,-3.0625 22.9375,-3.0625 0.1851,-8.76422 0.1445,-17.54357 0.1875,-26.3125 -0.683,-20.60805 -0.5314,-22.4375 -0.5312,-22.4375 0,0 1.1017,0.13533 3.0624,0.1875 l -0.1874,47.5 c 13.6938,-9.06234 12.7201,-9.04693 18.7812,-13.71875 l 2.75,-2.53125 0,-16.3125 c 0,-11.84383 0.078,-13.49133 0.3438,-15.03125 0.5434,0 1.2966,0.0838 2.6874,0 0.2364,2.29027 -0.1677,7.87983 -0.094,13.9375 0.1293,10.51714 0.5488,15.48035 1.375,16.03125 1.6795,1.11988 10.0593,-8.17254 18.25,-20.28125 3.6905,-5.4558 4.6586,-6.19142 7.5,-9.4375 4.4384,-0.44885 5.6687,-0.41318 9.1875,-0.15625 4.4344,4.49676 8.0175,9.01423 12.9375,12.0625 0,0 1.1956,-12.62068 1.75,-15.59375 0.5043,-0.0929 1.3125,-0.34375 1.3125,-0.34375 0,0 -0.9356,17.64225 -0.5312,18.21875 1.4683,2.09555 8.1435,6.28125 10.1874,6.28125 0.5982,0 2.75,-25.125 2.75,-25.125 l 2.3127,-0.2813 c 0,0 -2.1813,26.4467 -1.2188,26.5 7.7055,0.42663 15.0059,0.20985 16.0938,-2.625 0.077,-0.20191 -0.1958,-23.04324 0.062,-23.21875 0.26,-0.1755 1.2968,-0.0857 1.6563,-0.21875 -0.1329,9.4809 0.421,15.94927 0.5,22.90625 6.1529,-3.72481 9.5077,-7.14831 13.3437,-9.4375 l 0.031,-14.28125 2.0937,0.0312 c -0.4352,5.09358 0.5133,9.28845 0.5313,14.59375 0.5713,0 4.7897,-2.15682 7.6563,-4.90625 3.029,-2.87598 7.4358,-6.78706 10.9374,-8.8125 4.9754,2.67884 8.7875,5.0778 12.375,7.5625 0.1956,0.063 0.629,-6.36594 0.875,-6.0625 0.1232,0.15173 1.4262,0.20979 2.1876,0.59375 -0.045,2.49143 -0.1229,6.65324 0,6.71875 2.867,1.71116 3.9016,2.58876 6.7187,4.28125 0.1327,0.0531 -1.3436,-11.33434 -1.1563,-11.28125 0.1877,0.0531 1.6725,-0.0843 1.9063,-0.0312 0.2339,0.0531 0.805,10.22183 1.0313,11.5 1.2224,-0.24102 5.5773,-1.33992 6.9687,-1.625 0.084,0.0134 -0.6157,-6.08278 -0.9687,-9.53125 0.2817,-0.0457 0.6347,-0.0748 1,0 0.1836,1.25445 1.4787,8.9508 1.8124,8.78125 0.334,-0.16955 3.9686,-1.04089 4.1563,-1.09375 0.1877,-0.0529 -0.4696,-6.63316 -0.4687,-8.21875 0.8628,0.0477 0.4192,-0.0782 1.2187,0.0625 0.3911,3.13523 0.3329,5.11218 0.875,7.0625 0.8143,-0.59043 8.6936,-5.9099 8.875,-5.96875 0.1814,-0.0589 0.6636,-0.24516 1.3125,-0.46875 0.649,-0.22358 1.4654,-0.50861 2.25,-0.78125 0.7847,-0.27265 1.5364,-0.51272 2.125,-0.71875 0.2944,-0.10302 12.6441,1.12208 13.0312,1.375 0.3875,0.25292 -16.0135,1.01812 -18.2187,2.125 -3.2158,1.61424 -5.3564,3.77889 -6,4.21875 -0.8894,0.60785 -4.1573,3.71275 -6.9375,4.75 -1.1524,0.42997 -5.7879,2.24252 -10.9062,2.59375 -3.8168,0.47456 -6.3881,-1.01605 -10.9376,-3.8125 -4.6228,-2.84169 -5.0894,-4.10276 -10.1562,-7.40625 l -2.0625,-0.71875 c -2.6391,2.53162 -6.8696,7.54473 -12.5625,11.09375 -10.4093,7.5528 -24.4457,14.80565 -30.125,15.59375 -1.9936,0.27665 -6.7186,-0.24372 -10.5,-1.1875 -12.6601,-3.32534 -28.9937,-16.84017 -35.5625,-21.5 -0.5657,1.05712 -3.3374,4.42587 -4.0313,5.15625 -0.6935,0.73039 -3.2699,3.7875 -5.7187,6.8125 -18.1856,22.46489 -42.8594,39.52696 -64.4375,44.53125 -9.1849,2.13012 -16.9726,0.34239 -25.125,-5.71875 -9.8997,-7.36018 -24.6138,-21.38555 -44.125,-42.0625 l -9.125,-9.65625 -4.6875,5.84375 c -2.5846,3.22232 -7.2543,9.47843 -10.375,13.90625 -26.0046,36.89634 -57.73185,72.82413 -70.28125,79.5625 -2.9653,1.59221 -6.08125,3.45679 -6.90625,4.15625 -2.2306,1.8912 -12.08488,5.43692 -15.125,5.4375 -4.57697,8.7e-4 -12.70745,-4.5241 -19.15625,-10.6875 -8.73514,-8.34855 -24.92362,-30.43473 -38,-51.8125 -8.17931,-14.13852 -14.68407,-28.26257 -21.65625,-40.84375 -12.89373,28.67208 -16.95273,40.23827 -24.71875,52.125 -11.5907,23.92205 -28.57498,48.87811 -38.28125,71.71875 -1.85863,4.4 -4.35834,9.35 -5.53125,11 -2.00817,2.82503 -4.29309,6.63368 -8.65625,14.3125 -6.07427,10.69022 -18.03582,22.32695 -28.5,27.78125 -3.68335,1.91989 -7.09923,3.00257 -10.59375,3.25 l 0,4.125 c 4.26335,-0.0539 8.12296,-1.35014 13.15625,-3.96875 11.38285,-5.92201 24.89412,-20.0753 33.46875,-35 2.05393,-3.575 4.16305,-7.175 4.65625,-8 13.13327,-22.76566 26.93543,-48.3136 36.59375,-68 10.6478,-18.89602 18.5226,-40.90925 27.90625,-59.03125 13.62011,24.95117 26.57487,46.87881 44.21875,70.03125 15.46374,20.1114 25.86598,27.79103 36.375,26.78125 11.16932,-1.07323 37.47129,-18.55602 46.68755,-31.03125 2.1521,-2.9133 5.4233,-6.64124 7.2812,-8.28125 6.2377,-5.50612 27.5853,-32.56661 48.2812,-61.21875 2.0861,-2.8875 4.0964,-5.25 4.5,-5.25 0.6886,0 6.2353,5.46084 26.3126,26 13.8641,13.68138 25.6261,28.38131 43.7812,28.1875 31.1339,-0.0911 56.1632,-24.5744 77.8125,-48.5625 l 5.2813,-5.875 4.7187,3.90625 c 17.245,14.28679 37.5403,20.87868 47.2187,15.34375 1.9167,-1.09596 6.6188,-3.6263 10.4688,-5.625 9.6463,-5.00779 19.2717,-11.30746 23.9062,-15.6875 4.4876,-4.24105 4.5769,-4.259 7.1563,-1.875 4.101,3.79025 11.9887,9.54124 15.125,9.15625 13.8006,-0.35963 20.5408,-9.05682 27.4375,-13.03125 1.375,-0.29001 29.2188,-2.53321 56.7188,-2.84375 61.6325,0.49004 122.6512,0.29552 181.375,-1.59375 l 0,-1.1875 c -29.5811,-0.4171 -95.0371,-0.12792 -130.4688,-0.75 -72.5564,-1.27388 -84.1247,-3.02516 -94.3125,-5.15625 -8.179,-1.7109 -15.7503,-7.75477 -25.625,-13.375 -7.6861,-4.46441 -8.3248,-3.45703 -18.4375,-1.21875 -4.8451,1.62328 -13.9811,10.1915 -15,10.1875 -1.0189,-0.004 -5.0102,-2.0287 -8.8438,-4.5 -3.8331,-2.47129 -7.3494,-4.5 -7.8124,-4.5 -0.4634,0 -5.4279,-2.22497 -11.0313,-4.96875 -10.3207,-5.0537 -17.3687,-7.03125 -25.3125,-7.03125 -7.0088,0 -17.2672,6.30143 -30.7812,18.875 l -6.9376,6.4375 -8.0624,-8.8125 c -13.9043,-15.19878 -23.5256,-24.47258 -31.7813,-30.59375 -4.386,-3.25206 -8.358,-5.90625 -8.8437,-5.90625 -0.4864,0 -3.5085,-1.1941 -6.6876,-2.65625 -3.1784,-1.46216 -7.8062,-2.85335 -10.2812,-3.09375 -6.5137,-0.63268 -19.9341,3.03817 -30.7188,8.375 -8.7652,4.3378 -10.2471,5.57222 -29.125,24.46875 -10.9407,10.95169 -20.3733,19.90625 -20.9374,19.90625 -0.5645,0 -3.1381,-3.7125 -5.75,-8.25 -5.0716,-8.80992 -12.017,-18.35041 -16.9376,-23.28125 -1.6592,-1.66286 -7.3062,-7.72429 -12.5312,-13.46875 -25.9876,-28.57124 -46.548,-46.145941 -60.5,-51.718751 -7.602,-3.03647 -21.80531,-4.22378 -25.65625,-2.15625 -7.97564,4.28205 -23.71531,20.211371 -35.5625,36.000001 -9.03795,12.04478 -23.25207,34.29713 -24.71875,38.6875 -0.31376,0.93921 -1.38748,2.75167 -2.375,4.03125 l -1.8125,2.3125 -2.75,-7.3125 c -1.51763,-4.02958 -4.082,-9.94443 -5.71875,-13.125 -1.63676,-3.18057 -4.47203,-9.27268 -6.28125,-13.5625 -1.80921,-4.28983 -4.6411,-9.78914 -6.3125,-12.21875 -3.22109,-4.68336 -14.3118,-26.931071 -14.3118,-28.718751 0,-1.07999 -7.39998,-15.54871 -13.9375,-27.21875 -2.0027,-3.575 -5.62287,-10.55 -8.03125,-15.5 C 54.96414,31.562479 40.00862,12.680369 28.1875,6.7273387 18.87914,2.0397287 10.64534,-0.15586129 2.84375,0.00858871 z M 37.25,51.227339 c 1.18045,-0.59584 15.3125,22.07361 15.3125,24.71875 0,0.72983 0.30428,1.3125 0.6875,1.3125 0.38323,0 1.92853,2.8125 3.40625,6.25 1.47772,3.4375 3.0952,6.925 3.59375,7.75 0.49855,0.825 2.06755,3.975 3.5,7 2.48169,5.240741 2.62505,6.324911 2.71875,23.000001 0.0541,9.625 -0.4241,28.075 -1.0625,41 -1.98551,40.19859 -2.18835,46.48931 -2.65625,83.75 l -0.46875,36.25 c -7.33299,19.90672 -29.3125,55.625 -29.3125,55.625 0,0 0.94702,-61.31984 2.3125,-84.625 0.85257,-14.55095 0.6414,-36.21317 -0.59375,-61.5 -0.90758,-18.58069 -1.08058,-57.35172 -0.34375,-75 1.1333,-27.144111 2.77585,-64.915481 2.84375,-65.375001 0.0102,-0.069 0.0244,-0.13703 0.0625,-0.15625 z m 154.90625,50.187501 3.28125,0.5 c 4.45838,0.68037 11.1357,3.72262 17.9375,8.125 l 5.65625,3.625 1.09375,7.0625 c 1.792,11.54366 2.69905,51.30183 1.65625,72.53125 -1.69025,28.49784 -1.70741,58.74036 -2.5625,89.8125 -5.35769,6.06031 -18.29185,14.54792 -26.375,8.53125 -1.46974,-6.38135 -1.73948,-38.54986 -0.53125,-64.34375 1.55279,-33.14993 1.66006,-48.16369 0.625,-92.15625 l -0.78125,-33.6875 z m -13.4375,5.6875 c 0.67943,60.56803 3.09647,122.03116 0,168.65625 -5.54576,-8.99615 -11.48779,-17.91277 -15.03125,-27.9375 0,0 -0.46018,-59.9373 -0.3125,-79.09375 l 0.375,-46.0625 c 5.00147,-5.17607 9.98458,-10.36979 14.96875,-15.5625 z m 52.3125,16.65625 7.84375,7.65625 c 4.31895,4.19919 10.05725,9.61499 12.74995,12.0625 l 4.9063,4.46875 0.4687,38.40625 c -0.1028,22.58602 1.2813,56.28125 1.2813,56.28125 0,0 -14.3095,17.48651 -24.28125,28.0625 -0.19695,-25.91464 -2.24577,-49.72961 -0.46875,-75.6875 0.367,-7.01401 0.22885,-18.26401 -0.28125,-25 -0.5101,-6.73599 -1.2038,-19.9 -1.5625,-29.25 l -0.65625,-17 z m -152.3125,4.03125 4.46875,7.5 c 5.30963,8.90491 9.92143,18.2982 14.09375,28.78125 1.68081,4.22307 5.27823,12.9147 8,19.28125 2.72178,6.36654 4.9375,12.72526 4.9375,14.15625 0,2.41871 -6.17564,13.89197 -12.65625,25.3125 C 89.81501,240.11941 74.5,269.78984 74.5,269.78984 c 0.71148,-40.8241 -1.47649,-91.67657 3.5625,-136.5 l 0.65625,-5.5 z m 73.875,15.46875 c -0.73253,32.55759 -1.67559,55.27269 -2.65625,83.59375 -7.27551,-14.05521 -14.16977,-28.54759 -14.5625,-30.40625 -2.02905,-3.962 -2.30271,-8.3986 -2.25,-12.125 0.13873,-7.63361 0.34464,-8.26869 5.375,-16.96875 2.87479,-4.97199 7.17974,-12.42109 9.5625,-16.5625 2.38276,-4.1414 4.42435,-7.53125 4.53125,-7.53125 z m 224.1875,3 c 4.0302,0.032 10.0658,1.29142 13.7813,3.46875 l 4.4374,2.59375 -0.375,8.71875 c -0.3232,7.64982 -1.143,67.26813 -1.25,84.53125 -7.7382,1.25612 -6.334,1.79894 -16.625,1.5625 -0.4384,-0.43863 -0.6717,-12.34242 -0.5937,-29.875 0.085,-19.27682 -0.838,-56.92366 -1.5313,-62.5 -0.3413,-2.75 -1.0742,-5.53776 -1.625,-6.21875 -1.2805,-1.58459 0.6467,-2.30613 3.7813,-2.28125 z m -12.8437,5.09375 c 0,0 0.896,30.16808 2.625,41.4375 -0.2745,5.81574 -0.5653,19.52736 -0.6563,30.5 -0.1213,14.66626 -0.4997,19.96375 -1.375,19.96875 -0.6548,0.004 -4.4785,-2.63989 -8.5,-5.875 l -7.3125,-5.875 0.125,-33.9375 c 2.1676,-28.46894 1.1875,-33.6875 1.1875,-33.6875 4.551,-4.86858 13.9063,-12.53125 13.9063,-12.53125 z m 40.4062,7.75 c 5.8977,3.67428 14.8125,10.59375 14.8125,10.59375 l -0.375,28.875 c -0.2849,21.93859 -0.6563,30.375 -0.6563,30.375 0,0 -10.3658,6.54865 -14.9374,10.46875 0,0 -0.034,-45.10439 0.6874,-51.65625 0.6163,-10.08862 0.5147,-18.27445 0.4688,-28.65625 z m -137.25,2 3.3438,3.8125 c 5.1239,5.84114 23.1984,29.63442 24.4062,32.125 -11.141,15.2831 -16.0692,22.34369 -24.375,32.53125 -1.9801,-20.12217 -3.3624,-34.76906 -3.375,-53.65625 l 0,-14.8125 z m 228.2812,11.0625 c 0.7763,0 3.7654,0.0476 6,1.1875 l 4.0626,2.0625 -0.75,4.6875 c -0.7726,4.76153 -1.2311,14.22064 -1.375,28.75 -0.076,7.66305 -0.083,6.25557 -0.8438,9.125 -1.4008,0.63829 -5.7112,0.28615 -7.4062,0.21875 l -2.9688,-0.125 0.5,-14.5625 c 0.9985,-25.44171 1.3469,-27.35115 2.7812,-31.34375 z m -156.6562,0.78125 0.75,7.90625 c 0.4095,4.35057 0.5272,12.18125 0.25,17.40625 -0.2771,5.225 -0.6208,12.0875 -0.75,15.25 -0.1292,3.1625 -0.4025,5.75 -0.625,5.75 -1.0174,0 -16.1926,-16.16811 -18.625,-19.84375 l -2.7188,-4.09375 5.1876,-6 c 2.8466,-3.28604 7.7129,-8.292 10.8437,-11.15625 l 5.6875,-5.21875 z m 148.9375,2.375 c 0.084,-0.0168 0.1636,-0.008 0.2187,0 0.2665,0.0372 0.2095,0.37701 -0.1562,0.96875 -0.3441,0.55683 -0.8214,8.31933 -1.0625,17.25 -0.2411,8.93066 -1.3715,19.67638 -1.7813,21.15625 -4.2667,-1.15146 -3.5068,-0.64547 -6.0937,-2.21875 -1.4375,-2.97211 1.0978,-24.21693 1.3125,-31 0.1225,-2.23123 1.0415,-2.29533 3.625,-3.96875 2.0649,-1.33752 3.3493,-2.07013 3.9375,-2.1875 z m 24.1875,4.125 c 0.4659,0.0692 2.0285,0.84073 3.7812,1.875 l 3.6563,2.15625 -0.4375,7.65625 c -0.2337,4.20283 -0.7,12.54809 -0.75,14.8125 -0.6114,0.54077 -4.4279,4.62092 -7.4375,5.875 -0.4242,-10.37006 -0.818,-22.02626 1.0625,-32.34375 0.019,-0.02 0.058,-0.0412 0.125,-0.0312 z m -82.4688,1.125 c 0.2739,-0.0518 0.6489,0.27507 1.125,0.71875 1.0634,0.9903 4.0599,3.51426 6.6876,5.625 2.6272,2.11075 5.4492,5.60249 6.9687,7.15625 l 3,3.0625 c -6.1409,9.20819 -12.1045,17.84348 -19.75,26.34375 l 0.375,-3.875 c 0.2073,-2.11789 0.4868,-11.9927 0.5937,-21.96875 0.1442,-13.40847 0.1789,-16.90723 1,-17.0625 z m 139.0938,1.25 c 0.529,0.006 1.0605,0.064 1.5625,0.25 0.9225,6.15535 2.4375,22.0625 2.4375,22.0625 l -4.0938,1.375 -3,-22.84375 c 0.018,-0.23825 1.5068,-0.8608 3.0938,-0.84375 z m 5.1875,0.90625 3.6875,2.65625 c 0,0 1.1986,16.29845 1.2188,16.34375 l -2.2188,-0.0625 c -0.7618,-3.81112 -2.6875,-18.9375 -2.6875,-18.9375 z m -12.0313,1.96875 1.5313,19.53125 -3.125,-2.0625 c 0,0 -1.4417,-11.99887 -1.2813,-15.03125 1.1073,-0.87189 2.875,-2.4375 2.875,-2.4375 z m -88.5624,0.5625 0.031,10.5 c 0.027,5.77562 -0.8925,9.6875 -1.0625,9.6875 -1.4753,0 -7.811,-7.84981 -7.75,-9.5625 0.022,-0.61333 2.0006,-3.26188 4.4063,-5.875 l 4.375,-4.75 z m 53.625,3.21875 c 0,0 9.6823,4.04535 10.3437,5.875 -0.351,1.6834 -9.8125,8.96875 -9.8125,8.96875 l -0.5312,-14.84375 z m 54.875,0.34375 c 0.034,-0.0109 0.058,0.0109 0.094,0.0312 0.285,0.16303 1.9979,0.62503 4.5937,1.5625 2.4712,1.56056 4.75,3.15625 4.75,3.15625 0,0 -4.5956,2.62295 -8.3124,4.875 0.037,0.085 -1.6351,-9.46179 -1.125,-9.625 z m -27.2188,0.6875 c 0.4203,-0.25973 -0.1562,5.21754 -0.1562,8 -1.7242,0.33245 -6.0617,-4.03125 -6.2813,-4.03125 -0.7725,0 5.6827,-3.50226 6.4375,-3.96875 z"
     id="path3049"
     inkscape:connector-curvature="0" />
</svg>
