<?xml version="1.0" encoding="UTF-8" standalone="no"?>
<!-- Created with Inkscape (http://www.inkscape.org/) -->

<svg
   xmlns:dc="http://purl.org/dc/elements/1.1/"
   xmlns:cc="http://creativecommons.org/ns#"
   xmlns:rdf="http://www.w3.org/1999/02/22-rdf-syntax-ns#"
   xmlns:svg="http://www.w3.org/2000/svg"
   xmlns="http://www.w3.org/2000/svg"
   xmlns:sodipodi="http://sodipodi.sourceforge.net/DTD/sodipodi-0.dtd"
   xmlns:inkscape="http://www.inkscape.org/namespaces/inkscape"
   version="1.1"
   width="747.5"
   height="391.08963"
   id="svg3303"
   inkscape:version="0.48.2 r9819"
   sodipodi:docname="aalto_helsinki_logo_left.svg">
  <sodipodi:namedview
     pagecolor="#ffffff"
     bordercolor="#666666"
     borderopacity="1"
     objecttolerance="10"
     gridtolerance="10"
     guidetolerance="10"
     inkscape:pageopacity="0"
     inkscape:pageshadow="2"
     inkscape:window-width="1220"
     inkscape:window-height="762"
     id="namedview3162"
     showgrid="false"
     inkscape:zoom="1.2361274"
     inkscape:cx="320.20561"
     inkscape:cy="278.01501"
     inkscape:window-x="34"
     inkscape:window-y="0"
     inkscape:window-maximized="0"
     inkscape:current-layer="svg3303"
     fit-margin-top="0"
     fit-margin-left="0"
     fit-margin-right="0"
     fit-margin-bottom="0" />
  <metadata
     id="metadata3309">
    <rdf:RDF>
      <cc:Work
         rdf:about="">
        <dc:format>image/svg+xml</dc:format>
        <dc:type
           rdf:resource="http://purl.org/dc/dcmitype/StillImage" />
        <dc:title></dc:title>
      </cc:Work>
    </rdf:RDF>
  </metadata>
  <defs
     id="defs3307" />
  <path
     style="fill:#000000"
     d="m 747.5,0 c -3.00281,0.18516 -5.94499,0.6992 -8.875,1.59375 -5.57614,1.70242 -7.12132,2.78564 -13.1875,9.28125 -4.32639,4.63265 -8.30903,10.20932 -10.75,15.0625 -2.13301,4.24086 -5.92195,11.31875 -8.40625,15.71875 -2.48429,4.4 -5.75074,10.25 -7.28125,13 -1.53051,2.75 -4.97224,8.05707 -7.65625,11.78125 -2.68402,3.72419 -4.90625,7.27736 -4.90625,7.90625 0,0.6289 -1.86049,4.54683 -4.15625,8.71875 -7.46135,13.55903 -9.8086,18.2532 -14.0625,28 -2.30271,5.2761 -5.61275,11.84375 -7.34375,14.59375 -4.46333,7.09079 -8.04042,14.35657 -13,26.46875 -2.37214,5.7932 -6.36687,15.48506 -8.875,21.53125 -2.50814,6.04619 -4.5625,11.08973 -4.5625,11.21875 0,1.46781 -8.31551,-9.56729 -10.34375,-13.71875 -1.47789,-3.025 -4.67136,-8.65 -7.09375,-12.5 -2.42239,-3.85 -6.32653,-10.15 -8.65625,-14 -18.28752,-30.2212 -34.93632,-50.07382 -44.0625,-52.53125 -7.51582,-2.02382 -14.52369,-2.83125 -17.9375,-2.03125 -9.4056,2.20413 -20.09777,9.04079 -32.46875,20.71875 -2.24724,2.12136 -6.07224,5.69421 -8.5,7.9375 -2.42775,2.2433 -11.4125,11.41926 -19.9375,20.40625 -8.525,8.98698 -16.45285,17.29278 -17.625,18.4375 -2.18116,2.1301 -8.40062,9.2881 -14.03125,16.1875 -1.73652,2.12782 -4.05616,5 -5.1875,6.375 l -2.0625,2.5 -5.78125,-6.46875 c -10.77818,-12.06741 -18.22682,-18.84107 -26.8125,-24.4375 -4.70718,-3.0683 -9.11643,-5.59375 -9.8125,-5.59375 -0.69607,0 -1.69625,-0.35626 -2.21875,-0.8125 -0.5225,-0.45625 -4.68394,-2.29647 -9.25,-4.0625 -7.09386,-2.74374 -9.59257,-3.20665 -17.1875,-3.21875 -10.4757,-0.0167 -14.95898,1.06282 -24.15625,5.75 -6.37553,3.24914 -20.57018,13.61006 -30.875,22.5625 -2.475,2.15018 -5.175,4.3996 -6,5 -0.825,0.60041 -4.10965,3.60981 -7.3125,6.6875 l -5.8125,5.59375 L 295.125,177 c -6.41313,-6.92717 -9.25014,-8.75509 -18.5,-11.9375 -9.30137,-3.20015 -9.43782,-3.18815 -31.03125,7.28125 -7.34769,2.29064 -26.21875,10.6875 -26.21875,10.6875 0,0 -9.3847,-10.35259 -14.5,-11.25 -5.02703,-0.88193 -9.62817,-4.31693 -26.0625,6.25 -16.08156,10.3401 -20.9648,13.27909 -38.90625,14.3125 -11.81032,0.68026 -56.41875,1.9905 -56.96875,1.9375 -2.589382,-0.24974 -53.81666,0.30555 -82.9375,0.75 l 0,1.0625 c 42.654746,1.15211 81.305592,0.78317 122.4375,1.875 20.98944,-0.25803 36.40675,0.33625 43.5,1.6875 5.41879,1.03227 13.8993,4.13401 15.9375,5.375 1.1,0.66975 5.1011,1.98263 8.8125,3.53125 8.65937,3.61323 11.57538,3.1093 19.28125,-3.40625 3.24693,-2.74539 6.73178,-5.5625 7.34375,-5.5625 0.61197,0 3.10094,2.25 5.9375,4.3125 2.83655,2.0625 7.28208,5.1 9.875,6.75 2.59292,1.65 5.4239,3.47001 6.28125,4.03125 7.08274,4.63645 10.09585,6.46875 10.625,6.46875 0.34031,0 2.16911,0.72652 4.0625,1.625 6.9241,3.28569 18.23961,0.69418 29.34375,-6.71875 1.375,-0.91793 5.91341,-3.45068 10.0625,-5.65625 l 7.53125,-4.03125 9.75,8.84375 c 5.36034,4.85484 10.52819,9.68282 11.46875,10.75 3.38362,3.83912 17.76111,14.97748 21.1875,16.40625 6.43573,2.68362 16.89951,4.09775 25.8125,3.46875 12.43371,-0.87746 18.83069,-4.20263 42.9375,-22.1875 4.4233,-3.3 9.07932,-6.675 10.3125,-7.5 1.23318,-0.825 3.40776,-2.44109 4.84375,-3.59375 1.43599,-1.15266 4.92243,-3.71582 7.75,-5.6875 l 5.125,-3.5625 4.875,4.15625 c 7.26184,6.24806 15.69053,15.11745 27.84375,29.25 10.24744,11.91638 20.20785,22.115 29.5,30.21875 1.925,1.6788 6.2,5.61867 9.5,8.71875 3.3,3.10008 9.83532,8.18154 14.5,11.3125 8.32731,5.58934 8.63586,5.70288 17,6.21875 10.02638,0.61839 18.44491,-0.44118 22.15625,-2.8125 9.44301,-6.03352 29.34868,-28.76721 40.28125,-45.96875 2.7088,-4.26208 5.94029,-9.325 7.1875,-11.25 1.24722,-1.925 10.59375,-16.4375 10.59375,-16.4375 0,0 3.79883,5.1324 6.5,11.625 2.1917,5.27851 6.86719,13.0375 9.78125,18.8125 2.91406,5.775 6.0871,12.3 7.03125,14.5 0.94415,2.2 5.4454,11.65 10,21 4.55459,9.35 9.29259,19.25 10.5625,22 8.95637,18.2072 20.35956,37.67175 30.34375,52.6875 7.98395,11.98943 12.70661,18.08874 15.3125,19.8125 2.07124,1.3701 3.975,2.71495 4.25,3 2.26253,2.34528 10.75067,6.79191 16.5,8.625 5.57272,1.77678 9.66657,2.5347 13.5625,2.25 l 0,-4.15625 c -6.64954,0.87534 -13.41946,-1.34439 -22.6875,-7 -10.34968,-6.31566 -18.37464,-15.55727 -26.28125,-30.28125 -16.24407,-25.4987 -27.27218,-52.70604 -41.28125,-79.9375 -6.21729,-10.49473 -18.87753,-39.74883 -25.375,-51.46875 -3.21402,-5.79735 -5.46445,-7.64156 -7.59375,-9.53125 -11.61909,14.14507 -19.73303,31.0168 -24.0625,37 -13.99163,19.33598 -18.7702,24.92985 -31.15625,36.25 -4.62554,4.22749 -6.639,5.31126 -11.375,6.25 -3.16035,0.62643 -6.425,1.2747 -7.25,1.4375 -0.825,0.1628 -4.38237,-0.0964 -7.90625,-0.59375 -5.24837,-0.74071 -7.96107,-1.91802 -15,-6.46875 -4.72612,-3.05547 -11.33979,-8.36876 -14.71875,-11.8125 -3.37897,-3.44374 -7.65397,-7.321 -9.5,-8.59375 -3.93995,-2.71641 -13.90337,-12.67956 -22.375,-22.40625 -14.82564,-17.02202 -21.565,-24.41097 -26.5625,-29.0625 -4.43068,-4.73123 -11.18263,-10.4442 -14.5625,-13.125 0,0.48758 -5.1875,4.30245 -8.625,6.6875 -3.4375,2.38504 -8.53446,6.25535 -11.34375,8.625 -2.8093,2.36965 -5.48077,4.3125 -5.9375,4.3125 -0.45674,0 -4.92228,3.1049 -9.90625,6.875 -22.09343,16.71249 -26.39004,18.5629 -41.0625,17.84375 -13.50941,-0.66214 -19.8593,-2.99401 -28.1875,-10.40625 -3.58091,-3.18708 -8.14817,-7.05792 -10.15625,-8.59375 -2.00808,-1.53582 -7.78986,-6.82332 -12.84375,-11.75 -5.05388,-4.92667 -9.94911,-8.96875 -10.875,-8.96875 -0.92588,0 -6.82977,5.07498 -14.875,9.6875 -4.02262,2.30625 -10.57723,5.96151 -16.15625,7.59375 -5.57903,1.63224 -13.74889,0.52371 -14.40625,0.3125 -16.28309,-5.23187 -22.01519,-11.857 -37.34375,-23.75 0,0 -11.88617,11.12891 -14.71875,11.625 -2.88017,0.50441 -2.62641,0.9461 -5.75,0.75 -3.12358,-0.1961 -11.23666,-2.64408 -13.78125,-3.9375 -0.31807,-0.16168 -6.17108,-3.02184 -8.84375,-4.0625 -2.97248,-1.15741 -13.40504,-3.51174 -16.65625,-3.6875 2.20269,-0.68906 4.46073,-1.93489 8.125,-1.0625 3.11864,0.74248 12.57742,4.70949 12.34375,4.375 -0.87627,-1.25435 -0.37794,-5.85053 -0.78125,-6.40625 0.17907,0.0142 0.8094,0.2524 1.25,0.28125 1.11944,5.83912 1.28214,6.48595 1.46875,6.5 0.0933,0.007 3.98112,1.3085 5.375,1.5625 0.34847,0.0635 -0.99933,-8.934 -0.5,-8.71875 0.49933,0.21525 0.58048,-0.0113 1.15625,0.25 0.57577,0.26131 0.17221,8.82955 0.75,9.03125 0.57779,0.20169 5.30711,1.5886 5.8125,1.625 0.54485,-0.0664 -0.0311,-9.93467 0.25,-11.59375 0.53775,0.20165 0.60961,0.24219 1.125,0.0625 0.25874,2.06601 0.366,11.65429 0.84375,11.40625 0.47775,-0.24804 6.70016,-1.5196 7.125,-1.84375 -0.12283,-0.63669 -0.5,-11.375 -0.5,-11.375 l 1.5625,0.59375 c 0,0 0.13063,11.26929 1.25,11.03125 3.16369,-0.67278 3.93469,-2.05396 5.9375,-3.8125 2.10124,-2.30623 4.37501,-5.12075 5.59375,-6.9375 1.94779,-0.34888 4.1619,-0.23661 5.375,-0.15625 4.79085,5.5865 12.33442,11.64575 14.53125,11.65625 1.58647,0.008 0.9642,-1.75982 1.0625,-4.3125 0.0572,-1.48519 -0.53968,-6.5476 -0.375,-6.5625 0.47409,-0.0428 1.36147,-0.0803 2.53125,0.15625 0.20734,2.28983 0.375,13.03125 0.375,13.03125 0,0 3.70494,1.40349 8.34375,3.28125 0.75557,-6.59072 1.04349,-15.19881 1.21875,-17.90625 0.18953,-0.11836 0.42929,-0.19537 0.6875,-0.21875 0.77462,-0.0701 1.83421,0.25373 3.09375,0.65625 0.0753,2.39744 -0.9375,18.73869 -0.9375,19.3125 3.65732,1.3931 9.41998,3.34293 11.6875,2.90625 -0.002,-2.86499 -0.008,-0.42231 -0.0625,-4.34375 l -0.25,-18.46875 2.8125,0.15625 0.125,21.875 c 3.00002,-1.33961 7.1971,-4.12279 9.71875,-6.75 0,-0.37137 0.61841,-9.69795 0.84375,-15 0.0107,-0.25155 2.40282,0.20885 2.59375,0.15625 0.38185,-0.10519 -0.76127,11.62158 -0.1875,12.40625 1.19161,1.62962 1.7247,1.52431 8.1875,-1.5 3.98684,-1.86567 7.22859,-5.52372 9.21875,-8.46875 l 5.9375,0.0625 10.375,12.15625 c 7.86569,7.61489 13.10535,11.05334 15.0625,9.84375 0.5199,-0.32132 0.9375,-4.06788 0.9375,-8.34375 0,-6.40274 0.11664,-6.75522 0,-11.375 0.67449,0 1.55983,-0.0601 3.09375,0.40625 0.12233,2.26292 -0.0803,9.41597 -0.1875,14.09375 l -0.25,10.90625 8.03125,7.9375 c 8.06918,7.99377 10.29983,8.96655 11.84375,5.09375 0.36675,-0.91997 1.05417,-8.8875 1.53125,-17.6875 0.47709,-8.8 1.00755,-17.76875 1.03125,-17.90625 0.0237,-0.1375 1.50266,0.125 2.40625,0.125 0.56123,4.23479 0.28735,7.48802 -1.40625,28.21875 -0.51402,6.29195 -0.74455,11.80374 -0.46875,12.25 0.71608,1.15864 7.75717,1.00744 12.875,-0.28125 7.18853,-1.81009 8.71094,-4.28941 9.625,-15.625 0.91412,-7.81776 0.76386,-18.90126 0.59375,-24.4375 1.54406,-0.29028 1.68835,-0.34375 2.8125,-0.34375 -0.12139,7.05798 -0.40631,4.34307 -0.65625,15.75 -0.32706,14.92656 -0.22828,16.24739 1.40625,16.5625 1.97171,0.38011 11.07782,-5.33113 16.9375,-10.625 l 3.78125,-3.40625 0,-9.6875 c 0,-3.55504 0.12513,-4.01485 0.4375,-9.46875 0.86336,0 1.96784,-0.20508 3.125,0.625 0.0664,1.79253 -0.0141,6.15277 -0.21875,9.59375 -0.51941,8.73277 -0.12874,8.55752 2.90625,6.34375 1.07554,-0.78451 5.14296,-3.56634 8.375,-5.875 3.23204,-2.30865 7.41922,-5.57115 9.28125,-7.25 4.1598,-3.90974 8.05733,-6.00044 11.46875,-9.15625 2.33414,-0.005 5.53094,0.42574 8.84375,0.875 3.56289,3.27369 4.59303,3.87204 6.96875,5.75 2.18394,1.72636 5.51978,5.88595 8.21875,8.40625 2.69898,2.5203 6.05807,5.8 7.4375,7.3125 2.86781,3.14445 3.71002,4.45056 6.28125,5.53125 0.67891,-10.1461 1.53125,-27.03125 1.53125,-27.03125 l 2.96875,1.4375 -0.21875,28.40625 c 0,0 8.16286,9.95812 23.84375,25.1875 3.1625,3.07144 5.75,6.13615 5.75,6.8125 0,0.67635 5.25,2.96875 5.25,2.96875 1.64644,-13.97443 2.216,-40.4088 3.34375,-60.96875 0.70656,0 1.87843,-0.19379 3.5,0.3125 -0.0118,4.40815 -0.29976,11.14971 -1.03125,26.59375 -0.49468,10.44425 -0.61805,23.65374 -0.59375,29.34375 l 0.0312,10.34375 5.5,4.96875 c 11.05022,9.99246 13.87062,11.92888 21.0625,14.375 10.95025,3.72442 11.47469,3.57233 12.75,-3.28125 0.58848,-3.1625 1.37428,-15.65 1.75,-27.75 0.37573,-12.1 0.85555,-24.25 1.03125,-27 0.1757,-2.75 0.0933,-11.55165 0.125,-17.125 0.0263,-4.63344 -0.0292,-8.49155 0.25,-9.9375 0.27919,-1.44591 1.86676,0.083 2.78125,-0.15625 1.94952,-0.50981 1.25515,1.38949 1.21875,20.0625 -0.0205,10.53601 -0.65632,27.48125 -1.40625,37.65625 -0.74994,10.175 -1.15854,18.79538 -0.9375,19.15625 1.3948,2.27712 11.40549,-6.46308 17.375,-15.15625 1.32188,-1.925 4.27756,-5.81673 6.5625,-8.65625 L 592.1562,245.34375 592.8125,232 c 0.10712,-28.1457 0.40529,-31.23033 0.53125,-35.28125 0.33273,0.20564 1.76927,0.0231 3.1875,0.3125 0.0708,3.36923 -0.30347,13.48914 -0.125,19.84375 l -0.0312,10.21875 c 0,0 0.007,6.67569 0.25,9.90625 0.0909,1.21121 0.5625,3.59375 0.5625,3.59375 12.52326,-11.96766 19.36664,-27.08645 25.9375,-41.0625 6.85662,0.013 11.86371,0.95367 16.5625,0.46875 0.86114,-0.021 3.05584,5.54307 6.21875,11.65625 16.73197,32.339 22.27318,41.5 25.0625,41.5 0.94112,0 1.506,-1.01738 1.5625,-2.75 0.26365,-8.08472 -1.00239,-34.89489 -0.71875,-42.53125 l 0.3125,-8.78125 c 2.30663,0.15535 3.66211,0.31341 5.96875,0.46875 l -0.0625,9.03125 c -0.0428,4.98147 0.32198,21.6625 0.8125,37.0625 0.76334,23.96525 1.14301,28.36025 2.625,30.5 0.95232,1.375 3.15416,5.35771 4.90625,8.84375 1.75208,3.48604 6.46968,11.36104 10.46875,17.5 3.99907,6.13896 8.29289,12.84375 9.53125,14.90625 1.60849,2.67894 2.92855,3.75 4.65625,3.75 1.33014,0 2.44895,-0.1125 2.46875,-0.25 0.0198,-0.1375 0.25308,-5.875 0.53125,-12.75 0.27816,-6.875 0.75689,-13.4 1.0625,-14.5 0.30561,-1.1 0.95074,-19.1 1.4375,-40 1.14117,-35.3964 2.43091,-46.59737 2.84375,-55.875 2.28097,0.003 4.01126,1.32818 6.6875,1.25 -0.71515,30.54486 -2.97578,55.79308 -4.15625,83.125 -0.31534,7.425 -0.96805,19.72334 -1.46875,27.3125 -1.33234,20.1941 0.3148,31.76791 6,42.1875 6.97578,12.78496 14.90942,22.40985 21.0625,25.96875 l 0,-8.53125 c -0.44373,-0.31254 -0.90632,-0.66323 -1.375,-1.09375 -3.17332,-2.91499 -16.77184,-19.0977 -20.03125,-25.53125 -3.38935,-6.69003 -4.3982,-20.12159 -2.8125,-37.46875 0.62084,-6.79171 1.38502,-18.19375 1.6875,-25.34375 0.30248,-7.15 0.97161,-16.6 1.5,-21 1.62293,-13.51419 4.19747,-69.4963 4.53125,-98.5 0.17407,-15.125 0.87588,-32.9 1.53125,-39.5 0.73011,-7.35276 0.91386,-17.04156 0.5,-25.03125 -0.37149,-7.17171 -0.42496,-13.29379 -0.125,-13.59375 0.29997,-0.29997 0.78347,-13.71127 1.0625,-29.8125 0.27904,-16.10124 0.73408,-29.67542 1.03125,-30.15625 0.29717,-0.48082 2.66455,-1.48626 5.25,-2.25 1.50294,-0.44397 2.88263,-0.6804 4.25,-0.6875 0.99536,-0.005 1.98206,0.14665 3,0.40625 l 0,-19.53125 z m -30.34375,43.15625 c 0.3331,0 0.21965,15.8625 -0.21875,35.25 -0.43839,19.3875 -0.89164,53.925 -1.03125,76.75 -0.1396,22.825 -0.7678,46 -1.375,51.5 -0.60721,5.5 -1.31485,23.725 -1.59375,40.5 -0.2789,16.775 -1.0457,38.4875 -1.6875,48.25 -0.64179,9.7625 -1.40587,17.755 -1.71875,17.75 -0.31289,-0.005 -3.29375,-4.79562 -6.59375,-10.65625 -3.3,-5.86063 -8.51122,-14.52829 -11.59375,-19.25 -6.16837,-9.44849 -6.56339,-10.38798 -7.375,-17.46875 -0.30733,-2.68118 -0.73177,-5.15618 -0.9375,-5.5 -1.39405,-2.32974 -2.27787,-95.84012 -1.21875,-129.125 l 0.78125,-24.5 11.4375,-22.84375 c 6.29012,-12.5621 12.70971,-24.7121 14.25,-27 1.5403,-2.28791 4.03107,-6.29375 5.53125,-8.90625 1.50019,-2.6125 3.01065,-4.75 3.34375,-4.75 z m -176.875,59.5 c 2.8115,-0.0553 5.73589,0.75633 9.03125,2.4375 4.8598,2.47928 5.77204,3.69048 6.5,8.5625 0.70332,4.70709 2.125,69.65476 2.125,97 0,22.56595 -1.23541,61.45683 -2.125,66.75 -0.49915,2.96996 -1.07165,3.74305 -2.75,3.71875 -4.97362,-0.0721 -13.17926,-4.70643 -21.21875,-11.96875 l -8.3125,-7.5 0.46875,-17.5 c 0.25956,-9.625 0.78931,-23.125 1.15625,-30 0.36697,-6.875 0.534,-12.95 0.375,-13.5 -0.40874,-1.41386 -0.0484,-54.74654 0.375,-55.4375 0.19179,-0.31301 0.63543,-4.1625 0.96875,-8.5625 0.33333,-4.4 0.83235,-11.15 1.125,-15 1.14954,-15.12278 1.10457,-14.96125 5.8125,-17.3125 2.16339,-1.08045 4.28203,-1.64453 6.46875,-1.6875 z m -27.34375,17.4375 0.15625,22.78125 c 0.0762,12.53366 0.20899,34.93125 0.3125,49.78125 -0.22111,15.572 -0.71772,31.47143 -1.46875,45 -0.36087,6.6 -0.80314,12.14609 -0.96875,12.3125 -0.33885,0.3405 -22.07319,-20.94276 -26.6875,-26.34375 0.22533,-5.33033 -0.21839,-6.55364 0.84375,-24.96875 0.38086,-6.60321 0.68624,-13.8 0.5625,-16 -0.86391,-15.35969 -0.437,-30.24966 0.96875,-33.5 0.83255,-1.925 7.08892,-9.24759 13.90625,-16.28125 l 12.375,-12.78125 z m 55.78125,2.5 c 1.2525,-0.17943 9.40615,9.0087 13.21875,14.96875 8.53418,13.34108 8.02229,9.56663 7.90625,59.8125 -0.11258,48.74494 0.22226,45.7189 -5.9375,52.5625 -1.34878,1.49852 -4.69465,5.73333 -7.4375,9.40625 -2.74285,3.67291 -7.1875,7.5 -7.1875,7.5 0,0 1.96528,-59.90218 1.15625,-93.96875 -1.61592,-10.94021 -2.9877,-49.04355 -1.8125,-50.21875 0.0257,-0.0257 0.0534,-0.0567 0.0937,-0.0625 z M 667.9375,135 l 0.6875,5.3125 c 0.3644,2.93416 0.39508,26.49375 0.0937,52.34375 -0.30114,25.85 -0.68355,47.15514 -0.84375,47.34375 -0.1602,0.18861 -1.05697,-1.16139 -2,-3 -0.94302,-1.83861 -5.07903,-9.81609 -9.1875,-17.75 -10.27174,-19.8359 -12.42499,-25.77218 -11.15625,-30.71875 1.23962,-4.83305 3.66162,-11.91008 5.5,-16.03125 0.77311,-1.73312 1.40625,-3.39011 1.40625,-3.6875 0,-0.29739 1.77598,-4.27427 3.9375,-8.84375 2.16152,-4.56949 4.07402,-9.2125 4.25,-10.3125 0.17598,-1.1 0.5375,-2.225 0.8125,-2.5 0.275,-0.275 1.85,-3.13459 3.5,-6.34375 l 3,-5.8125 z m -315.15625,16.25 -0.6875,23.71875 c -1.4781,18.22092 -0.96228,40.52196 -4,56.0625 0,0 -1.54027,-0.9926 -4.875,-3.65625 -7.83068,-6.25483 -7.83399,-6.24356 -7.53125,-37.8125 l 0.25,-27.71875 4.5,-3.28125 c 2.475,-1.79792 6.25704,-4.17172 8.40625,-5.28125 l 3.9375,-2.03125 z m 9.875,0.21875 6.65625,1.8125 c 3.65855,0.9994 6.9958,1.82775 7.4375,1.84375 0.82594,0.0299 0.54477,12.63541 -1.1875,52.375 -1.04961,24.07884 -1.18586,24.59998 -6.25,27.21875 -1.52524,0.78873 -4.58519,1.4375 -6.8125,1.4375 l -4.0625,0 0.0312,-6.25 c 0.002,-3.4375 0.65157,-10.36776 1.46875,-15.40625 0.84637,-5.2184 1.38313,-14.04082 1.25,-20.5 -0.12853,-6.23651 0.16192,-18.35958 0.625,-26.9375 l 0.84375,-15.59375 z m 24.28125,9.03125 7,4.15625 7,4.125 -0.0312,4.4375 c -0.0299,2.43951 -0.6503,10.2875 -1.375,17.4375 -0.7247,7.15 -1.14215,15.58675 -0.9375,18.75 0.20465,3.16325 -0.3125,6.75 -0.3125,6.75 0,0 -4.74574,4.26795 -7.3125,5.90625 -3.56152,2.2493 -6.59902,4.09309 -6.75,4.09375 -0.44857,0.002 1.00417,-41.10981 1.625,-46 0.31421,-2.475 0.70112,-7.92156 0.84375,-12.09375 l 0.25,-7.5625 z m 83.96875,3.15625 0.8125,5 c 0.44274,2.75 0.53393,11.075 0.21875,18.5 -0.31517,7.425 -0.51775,15.4125 -0.46875,17.75 0.0519,2.47457 -0.3917,4.25 -1.03125,4.25 -0.60412,0 -4.85398,-3.81223 -9.46875,-8.46875 l -8.40625,-8.46875 3.0625,-5.78125 c 1.67897,-3.18098 3.82032,-6.68125 4.78125,-7.78125 0.96092,-1.1 3.72255,-4.925 6.125,-8.5 l 4.375,-6.5 z m -143.9375,6.5 c 0.81236,0 0.0666,22.51568 -1.125,33.75 -0.36461,3.4375 -1.07942,6.25 -1.5625,6.25 -1.12598,0 -14.41098,-13.33766 -15.71875,-15.78125 -0.78966,-1.4755 -0.017,-3.25801 3.78125,-8.84375 4.45406,-6.55011 12.84221,-15.375 14.625,-15.375 z m 273.875,3 c 1.71836,0 15.59375,25.97747 15.59375,29.1875 0,2.96906 -8.27598,17.66063 -12.75,24.0625 -2.40233,3.4375 -3.53127,6.75 -3.78125,6.75 -0.41745,0 -0.24896,-5.22672 1.03125,-29.09375 0.36178,-6.24523 -0.28142,-19.10316 -0.0937,-30.90625 z m -341.625,1.21875 c 0.48931,0.006 0.87698,0.0957 1.0625,0.28125 0.37105,0.37105 0.77747,8.03041 0.65625,17.03125 l -0.25,19.0625 c -1.66477,-0.11277 -4.72899,-1.10566 -5.46875,-1.78125 -0.36596,-1.79623 0.46875,-4.834 0.40625,-17.6875 -0.0741,-15.22806 0.0108,-16.04474 1.9375,-16.65625 0.55688,-0.17676 1.16694,-0.25578 1.65625,-0.25 z m 151.75,1 c 1.42141,0.0206 14.98751,9.63108 17.96875,12.78125 l 2.75,4 -4.25,3.09375 c -2.475,2.16777 -7.57298,6.24136 -11.34375,9.03125 L 409.25,209.34375 410.09375,204 c 0.4643,-2.93601 0.7613,-7.59375 0.6875,-10.34375 -0.28479,-10.61688 -0.24464,-17.9114 0.0937,-18.25 0.0198,-0.0198 0.048,-0.0322 0.0937,-0.0312 z M 271.4375,177 c 0.12931,-7.3e-4 0.28454,0.0946 0.4375,0.25 0.40542,0.41188 3,-1.29908 3,1.0625 0,0.67214 0.51342,24.39955 -1.03125,25.59375 l -4.1875,3.25 0.28125,-14.5625 c 0.2253,-11.50879 0.59486,-15.58867 1.5,-15.59375 z m -72.46875,2.75 c 0.52155,0.019 0.88561,0.11734 1.34375,0.4375 0.25152,0.9625 1.48753,21.28603 0.5,21.40625 -5.19552,0.63245 -4.03674,1.31409 -4.15625,-1.5625 -0.14074,-6.92933 -0.0366,-13.15778 0,-20.25 1.09985,-0.014 1.79095,-0.0503 2.3125,-0.0312 z m 46.8125,0.40625 c 0.64299,0 1.7218,7.73138 1.625,16.75 -0.066,6.14792 -0.46875,8.15625 -0.46875,8.15625 0,0 -2.30138,-0.36585 -4.3125,-1.40625 -0.003,-1.74167 -0.0133,-7.51109 -0.125,-9.5 -0.47338,-8.42741 -2.15653,-10.70658 0.4375,-12.40625 1.34383,-0.88051 2.61969,-1.59375 2.84375,-1.59375 z m -40.53125,1.1875 c 2.93748,0.89303 6.67689,5.65164 7.96875,8.125 l -2.53125,5.40625 c -1.15649,1.44813 -2.6674,3.36942 -4.65625,4.75 L 205.25,181.34375 z m -13.625,0.0937 c 0.9012,6.86806 0.48626,13.94271 0.5625,20.875 l -3.59375,-0.96875 c 0,0 -0.53423,-16.18315 -0.0937,-18.40625 1.86428,-0.95031 3.125,-1.5 3.125,-1.5 z m -8.1875,3.0313 c 0.55897,-0.34546 1.875,14.45504 1.875,15.3125 -1.08889,0.0162 -1.76973,0.0932 -3.53125,-0.5625 -1.23009,-4.77611 -1.6349,-12.60296 -1.8125,-13.03125 1.09389,-1.16354 2.91495,-1.37648 3.46875,-1.71875 z m 49.875,2.71875 0.6875,5.53125 c 0.38035,3.04419 0.48975,5.729 0.25,5.96875 -0.23975,0.23976 -2.18397,-1.35144 -4.3125,-3.53125 -2.12853,-2.17981 -3.64552,-4.1286 -3.40625,-4.34375 0.23926,-0.21515 1.84508,-1.11101 3.59375,-2 l 3.1875,-1.625 z m 50.59375,0.96875 c 0.7206,-0.0396 1.78077,0.96134 3.34375,2.90625 1.75595,2.18505 3.1875,4.23517 3.1875,4.53125 0,0.29607 -1.8,1.44014 -4,2.5625 -4.36367,2.22618 -4.32079,2.26961 -4,-4.5 0.1742,-3.67612 0.54227,-5.44907 1.46875,-5.5 z m -108.625,3.21875 c 0.44539,0.0297 1.10773,3.17035 1.15625,5.6875 -2.31389,0.13056 -3.72432,-0.21666 -6.375,-2.21875 0.13174,-0.76512 1.42047,-2.95075 5.21875,-3.46875 z"
     id="path3049"
     inkscape:connector-curvature="0" />
</svg>
